<svg id="Layer_1" data-name="Layer 1" xmlns="http://www.w3.org/2000/svg" viewBox="0 0 243 228"><defs><style>.cls-1{fill:#c4c2c2;}.cls-2{fill:#595959;}.cls-3{fill:#828282;}.cls-4{fill:#2abfd8;}.cls-5{fill:#62d5ef;}</style></defs><title>UV_LOGO_RGB</title><path class="cls-1" d="M201.63,44.46a34.28,34.28,0,0,0-2.56-4.08,3.36,3.36,0,0,0-2.2-1.17c-2.78-.22-9.87-.47-19.24-.61-17.47-.27-42.1-.82-55.93-.84s-38.45.52-55.93.76c-9.36.13-16.45.37-19.24.58a2.51,2.51,0,0,0-2.07.81,42.79,42.79,0,0,0-2.69,4.43,1.26,1.26,0,0,0,.32,1.42c.22.23,6.89,4,14.71,8.56h0s12.51,0,13.44,0a3.67,3.67,0,0,1,2,.42c1.57,1,16.23,11.51,19.26,11.82,2,.21,23.28.06,23.28.06l17.56.06h33.34c4.12-2.46,10.43-6.26,16.54-9.79,9.55-5.51,18.82-10.78,19.08-11.05A1.25,1.25,0,0,0,201.63,44.46Z"/><path class="cls-2" d="M125.23,190.2a36.57,36.57,0,0,0,4.81-.13,3.43,3.43,0,0,0,2.13-1.3c1.6-2.29,5.42-8.26,10.31-16.25,9.13-14.9,22.15-35.82,29.19-47.72s19.14-33.36,27.82-48.52c4.66-8.13,8.06-14.35,9.3-16.86a2.56,2.56,0,0,0,.36-2.2,44.87,44.87,0,0,0-2.45-4.57,1.28,1.28,0,0,0-1.38-.45c-.31.08-7,3.88-14.86,8.31h0L183.6,72.07a3.72,3.72,0,0,1-1.39,1.51c-1.63.86-18.17,8.12-20,10.57-1.22,1.66-11.9,20-11.9,20l-9,15.09-17,28.7c0,4.79.08,12.15,0,19.21-.11,11-.29,21.68-.2,22A1.29,1.29,0,0,0,125.23,190.2Z"/><path class="cls-3" d="M36.16,51.82a36.24,36.24,0,0,0-2.25,4.26A3.43,3.43,0,0,0,34,58.57c1.21,2.52,4.55,8.77,9.12,16.95,8.53,15.25,20.4,36.85,27.32,48.81s19.73,33,28.7,48c4.81,8,8.57,14.06,10.15,16.36.54.79,1,1.3,1.74,1.39a44.55,44.55,0,0,0,5.18.11,1.28,1.28,0,0,0,1.07-1c.08-.31,0-8,0-17h0s-6.26-10.84-6.72-11.65a3.76,3.76,0,0,1-.64-1.94c0-1.85,1.82-19.82.57-22.6-.85-1.88-11.62-20.17-11.62-20.17l-8.75-15.22L73.43,71.76c-4.19-2.34-10.64-5.88-16.76-9.4-9.56-5.5-18.76-10.88-19.12-11A1.27,1.27,0,0,0,36.16,51.82Z"/><path class="cls-4" d="M132.36,66.71l-17.57-.06s-21.22.15-23.27-.06a7.7,7.7,0,0,1-2.18-.82L83,69.55a4.72,4.72,0,0,0,.54.08c1.2.1,3.21.13,3.9.13,2.65,0,25.52,0,31.67,0,5.47,0,38.68,0,39.68,0a6.65,6.65,0,0,0,3.18-.81c.62-.29,3.73-2.22,3.73-2.22Z"/><path class="cls-4" d="M117.15,141.37c-.52-1.09-1.49-2.84-1.85-3.44-1.34-2.28-12.8-22.07-15.87-27.4C96.7,105.8,80,77.07,79.51,76.21a6.93,6.93,0,0,0-2.28-2.35c-.57-.38-3.8-2.1-3.8-2.1L90.15,100.6l8.75,15.23s10.77,18.29,11.62,20.17a7.61,7.61,0,0,1,.37,2.17l6.43,3.61C117.26,141.62,117.2,141.48,117.15,141.37Z"/><path class="cls-4" d="M163.67,75.73c-.7,1-1.74,2.7-2.09,3.3-1.34,2.28-13,22-16.13,27.26-2.79,4.69-19.67,33.3-20.18,34.16a6.68,6.68,0,0,0-.92,3.15c-.06.68,0,4.34,0,4.34l17-28.7,9-15.09s10.68-18.34,11.9-20A7.48,7.48,0,0,1,164,82.71v-7.4C163.88,75.46,163.76,75.62,163.67,75.73Z"/><path class="cls-5" d="M72.25,54.77a3.62,3.62,0,0,0-2-.42c-.93,0-13.44,0-13.44,0s.87.54,2.36,1.41c1.74,1,4.29,2.45,7.2,4.18C69,61.49,73.05,64,75.46,65.43c1.77,1.07,4.66,2.93,6.1,3.63a7.16,7.16,0,0,0,1.09.41l.35.08,6.34-3.78C84.22,63.21,73.58,55.58,72.25,54.77Z"/><path class="cls-5" d="M117.46,142.23a3.36,3.36,0,0,0-.14-.45l-6.43-3.61c.39,5.64-.9,18.85-.94,20.42a3.79,3.79,0,0,0,.64,1.95c.46.81,6.72,11.64,6.72,11.64s0-1,0-2.75c0-2,0-4.94,0-8.33,0-3.09.15-7.81.21-10.63,0-2.07.2-5.5.08-7.1A7.31,7.31,0,0,0,117.46,142.23Z"/><path class="cls-5" d="M188,61.84c-1.74,1-4.29,2.44-7.27,4.06-2.71,1.48-6.88,3.69-9.37,5-1.82,1-4.89,2.52-6.23,3.4a9.24,9.24,0,0,0-.9.73,2.06,2.06,0,0,0-.25.26v7.4c4.78-3.1,16.81-8.4,18.19-9.12a3.71,3.71,0,0,0,1.38-1.52c.49-.79,6.87-11.55,6.87-11.55S189.54,61,188,61.84Z"/></svg>