<svg id="Layer_1" data-name="Layer 1" xmlns="http://www.w3.org/2000/svg" viewBox="0 0 260.13 75.65"><defs><style>.cls-1{fill:#e2e2e2;}</style></defs><title>2.5Artboard 7 copy 4</title><path class="cls-1" d="M29.86,54.85h-4l-.49,1.3H23.3l4.55-11.29,4.57,11.29H30.36Zm-3.39-1.63h2.77L27.85,49.3Z"/><path class="cls-1" d="M46.5,52.54V44.86h1.91v7.68a2.09,2.09,0,0,0,2.36,1.89c1.19,0,2.38-.63,2.38-1.89V44.86h1.91v7.68c0,2.4-1.86,3.77-4.29,3.77S46.5,54.86,46.5,52.54Z"/><path class="cls-1" d="M76.15,46.59H73.76v9.56h-1.9V46.59H69.47V44.86h6.68Z"/><path class="cls-1" d="M95.71,56.3c-7.53,0-7.52-11.59,0-11.59S103.21,56.3,95.71,56.3Zm0-9.75c-4.92,0-4.94,7.93,0,7.93S100.65,46.55,95.71,46.55Z"/><path class="cls-1" d="M128.67,56.15h-1.9V49.22l-3.28,6.93h-1.8l-3.48-7.08v7.08H116.3V44.84h1.94l4.34,8.8,4.15-8.8h1.94Z"/><path class="cls-1" d="M149.23,56.3c-7.54,0-7.52-11.59,0-11.59S156.73,56.3,149.23,56.3Zm0-9.75c-4.93,0-4.94,7.93,0,7.93S154.17,46.55,149.23,46.55Z"/><path class="cls-1" d="M175.55,46.59h-2.39v9.56h-1.89V46.59h-2.4V44.86h6.68Z"/><path class="cls-1" d="M190,44.86h1.9V56.15H190Z"/><path class="cls-1" d="M215.11,44.86l-4.56,11.29L206,44.86h2.05l2.5,6.66,2.51-6.66Z"/><path class="cls-1" d="M231.12,46.75v2.82h4.74v1.87h-4.74v2.83h5.7v1.88h-7.61V44.86h7.61v1.89Z"/><path class="cls-1" d="M23.3,31.5V19.94a.23.23,0,0,1,.25-.2h2.84a.23.23,0,0,1,.25.2V31.47a3.06,3.06,0,0,0,3.28,2.68c1.66,0,3.29-.87,3.29-2.65V19.94a.23.23,0,0,1,.25-.2h2.86a.22.22,0,0,1,.22.2V31.5c0,3.73-2.86,5.89-6.62,5.89S23.3,35.13,23.3,31.5Z"/><path class="cls-1" d="M53.45,33.9a.23.23,0,0,1,.25.2v2.84a.23.23,0,0,1-.25.2H44.32a.23.23,0,0,1-.25-.2V19.79a.23.23,0,0,1,.25-.2h2.83c.16,0,.26.1.26.2V33.9Z"/><path class="cls-1" d="M68,22.54c0,.1-.1.18-.25.18H64.41V36.94a.2.2,0,0,1-.22.2H61.35a.2.2,0,0,1-.22-.2V22.72H57.79c-.15,0-.25-.08-.25-.18v-2.6a.23.23,0,0,1,.25-.2h10a.23.23,0,0,1,.25.2Z"/><path class="cls-1" d="M79.11,30H77.23v6.9a.23.23,0,0,1-.25.2H74.12a.23.23,0,0,1-.23-.2V19.79a.23.23,0,0,1,.23-.2h5.67c1,0,5.94.05,5.94,5.21a4.65,4.65,0,0,1-3.23,4.72c1.1,2.48,2.28,4.88,3.38,7.34.08.15,0,.28-.2.28H82.55a.33.33,0,0,1-.23-.13Zm-1.88-3.21h2.56c.72,0,2.6-.1,2.6-2s-2.08-2-2.6-2H77.23Z"/><path class="cls-1" d="M100.78,35.16H95.09L94.41,37a.22.22,0,0,1-.23.13H91.1c-.2,0-.3-.13-.22-.28l6.84-17.23a.25.25,0,0,1,.45,0L105,36.86c.07.15,0,.28-.2.28h-3.11a.21.21,0,0,1-.2-.13Zm-4.61-3H99.7L98,26.93Z"/><path class="cls-1" d="M121.45,19.59c.2,0,.3.12.22.27l-6.82,17.19a.25.25,0,0,1-.42,0l-6.77-17.19c-.08-.15,0-.27.2-.27h3.06a.23.23,0,0,1,.22.12l3.51,9.81,3.51-9.81a.25.25,0,0,1,.23-.12Z"/><path class="cls-1" d="M127.27,19.79a.23.23,0,0,1,.25-.2h2.83a.23.23,0,0,1,.25.2V36.94a.23.23,0,0,1-.25.2h-2.83a.23.23,0,0,1-.25-.2Z"/><path class="cls-1" d="M154.65,28.34c0,4.48-2.9,9-8.65,9s-8.7-4.54-8.7-9,2.86-9,8.7-9S154.65,23.85,154.65,28.34Zm-3.38.05c0-2.94-1.78-5.87-5.27-5.87s-5.29,2.93-5.29,5.87,1.76,5.81,5.29,5.81S151.27,31.3,151.27,28.39Z"/><path class="cls-1" d="M171,33.9a.23.23,0,0,1,.25.2v2.84a.23.23,0,0,1-.25.2h-9.13a.23.23,0,0,1-.25-.2V19.79a.23.23,0,0,1,.25-.2h2.83c.16,0,.26.1.26.2V33.9Z"/><path class="cls-1" d="M180.09,22.77v4.06h6.85a.2.2,0,0,1,.22.2v2.74a.2.2,0,0,1-.22.2h-6.85v4h8.28a.23.23,0,0,1,.25.2v2.76a.23.23,0,0,1-.25.2H177a.22.22,0,0,1-.23-.2V19.79a.22.22,0,0,1,.23-.2h11.36a.23.23,0,0,1,.25.2v2.78a.23.23,0,0,1-.25.2Z"/><path class="cls-1" d="M204.17,22.54c0,.1-.1.18-.25.18h-3.34V36.94a.2.2,0,0,1-.22.2h-2.84a.2.2,0,0,1-.22-.2V22.72H194c-.15,0-.25-.08-.25-.18v-2.6a.23.23,0,0,1,.25-.2h10a.23.23,0,0,1,.25.2Z"/><path class="cls-1" d="M219.07,22.54c0,.1-.1.18-.25.18h-3.34V36.94a.2.2,0,0,1-.22.2h-2.84a.2.2,0,0,1-.22-.2V22.72h-3.34c-.15,0-.25-.08-.25-.18v-2.6a.23.23,0,0,1,.25-.2h10a.23.23,0,0,1,.25.2Z"/><path class="cls-1" d="M228.3,22.77v4.06h6.84a.2.2,0,0,1,.23.2v2.74a.2.2,0,0,1-.23.2H228.3v4h8.27a.23.23,0,0,1,.25.2v2.76a.23.23,0,0,1-.25.2H225.22a.22.22,0,0,1-.23-.2V19.79a.22.22,0,0,1,.23-.2h11.35a.23.23,0,0,1,.25.2v2.78a.23.23,0,0,1-.25.2Z"/></svg>